<svg width="200" height="100" viewBox="0 0 200 100" fill="none" xmlns="http://www.w3.org/2000/svg">
<path d="M16.7664 50.904V44.056H20.6704C21.2464 44.056 21.801 44.0987 22.3344 44.184C22.8677 44.2693 23.337 44.44 23.7424 44.696C24.1477 44.9307 24.4677 45.272 24.7024 45.72C24.9584 46.168 25.0864 46.7547 25.0864 47.48C25.0864 48.2053 24.9584 48.792 24.7024 49.24C24.4677 49.688 24.1477 50.04 23.7424 50.296C23.337 50.5307 22.8677 50.6907 22.3344 50.776C21.801 50.8613 21.2464 50.904 20.6704 50.904H16.7664ZM11.7424 40.152V63H16.7664V54.808H22.0464C23.4757 54.808 24.6917 54.6053 25.6944 54.2C26.697 53.7733 27.5077 53.2187 28.1264 52.536C28.7664 51.8533 29.225 51.0747 29.5024 50.2C29.801 49.304 29.9504 48.3973 29.9504 47.48C29.9504 46.5413 29.801 45.6347 29.5024 44.76C29.225 43.8853 28.7664 43.1067 28.1264 42.424C27.5077 41.7413 26.697 41.1973 25.6944 40.792C24.6917 40.3653 23.4757 40.152 22.0464 40.152H11.7424ZM47.9661 63V46.456H43.4221V55.128C43.4221 56.8133 43.1448 58.0293 42.5901 58.776C42.0355 59.5013 41.1395 59.864 39.9021 59.864C38.8141 59.864 38.0568 59.5333 37.6301 58.872C37.2035 58.1893 36.9901 57.1653 36.9901 55.8V46.456H32.4461V56.632C32.4461 57.656 32.5315 58.5947 32.7021 59.448C32.8941 60.28 33.2141 60.9947 33.6621 61.592C34.1101 62.168 34.7181 62.616 35.4861 62.936C36.2755 63.256 37.2781 63.416 38.4941 63.416C39.4541 63.416 40.3928 63.2027 41.3101 62.776C42.2275 62.3493 42.9741 61.656 43.5501 60.696H43.6461V63H47.9661ZM51.2549 46.456V63H55.7989V55.544C55.7989 54.7973 55.8735 54.104 56.0229 53.464C56.1722 52.824 56.4175 52.2693 56.7589 51.8C57.1215 51.3093 57.5909 50.9253 58.1669 50.648C58.7429 50.3707 59.4469 50.232 60.2789 50.232C60.5562 50.232 60.8442 50.2533 61.1429 50.296C61.4415 50.3173 61.6975 50.3493 61.9109 50.392V46.168C61.5482 46.0613 61.2175 46.008 60.9189 46.008C60.3429 46.008 59.7882 46.0933 59.2549 46.264C58.7215 46.4347 58.2202 46.68 57.7509 47C57.2815 47.2987 56.8655 47.672 56.5029 48.12C56.1402 48.5467 55.8522 49.016 55.6389 49.528H55.5749V46.456H51.2549ZM71.8844 60.024C71.159 60.024 70.5404 59.8747 70.0284 59.576C69.5164 59.2773 69.1004 58.8933 68.7804 58.424C68.4817 57.9333 68.2577 57.368 68.1084 56.728C67.9804 56.088 67.9164 55.4373 67.9164 54.776C67.9164 54.0933 67.9804 53.432 68.1084 52.792C68.2364 52.152 68.4497 51.5867 68.7484 51.096C69.0684 50.6053 69.4737 50.2107 69.9644 49.912C70.4764 49.592 71.1057 49.432 71.8524 49.432C72.5777 49.432 73.1857 49.592 73.6764 49.912C74.1884 50.2107 74.6044 50.616 74.9244 51.128C75.2444 51.6187 75.4684 52.184 75.5964 52.824C75.7457 53.464 75.8204 54.1147 75.8204 54.776C75.8204 55.4373 75.7564 56.088 75.6284 56.728C75.5004 57.368 75.2764 57.9333 74.9564 58.424C74.6577 58.8933 74.2524 59.2773 73.7404 59.576C73.2497 59.8747 72.631 60.024 71.8844 60.024ZM63.5324 46.456V68.792H68.0764V60.952H68.1404C68.695 61.7627 69.399 62.3813 70.2524 62.808C71.127 63.2133 72.0764 63.416 73.1004 63.416C74.3164 63.416 75.3724 63.1813 76.2684 62.712C77.1857 62.2427 77.943 61.6133 78.5404 60.824C79.159 60.0347 79.6177 59.128 79.9164 58.104C80.215 57.08 80.3644 56.0133 80.3644 54.904C80.3644 53.7307 80.215 52.6107 79.9164 51.544C79.6177 50.456 79.159 49.5067 78.5404 48.696C77.9217 47.8853 77.143 47.2347 76.2044 46.744C75.2657 46.2533 74.1457 46.008 72.8444 46.008C71.8204 46.008 70.8817 46.2107 70.0284 46.616C69.175 47.0213 68.471 47.672 67.9164 48.568H67.8524V46.456H63.5324ZM83.0629 40.152V63H87.6069V40.152H83.0629ZM102.161 52.952H94.7689C94.7902 52.632 94.8542 52.2693 94.9609 51.864C95.0889 51.4587 95.2915 51.0747 95.5689 50.712C95.8675 50.3493 96.2515 50.0507 96.7209 49.816C97.2115 49.56 97.8195 49.432 98.5449 49.432C99.6542 49.432 100.476 49.7307 101.009 50.328C101.564 50.9253 101.948 51.8 102.161 52.952ZM94.7689 55.832H106.705C106.79 54.552 106.684 53.3253 106.385 52.152C106.086 50.9787 105.596 49.9333 104.913 49.016C104.252 48.0987 103.398 47.3733 102.353 46.84C101.308 46.2853 100.081 46.008 98.6729 46.008C97.4142 46.008 96.2622 46.232 95.2169 46.68C94.1929 47.128 93.3075 47.7467 92.5609 48.536C91.8142 49.304 91.2382 50.2213 90.8329 51.288C90.4275 52.3547 90.2249 53.5067 90.2249 54.744C90.2249 56.024 90.4169 57.1973 90.8009 58.264C91.2062 59.3307 91.7715 60.248 92.4969 61.016C93.2222 61.784 94.1075 62.3813 95.1529 62.808C96.1982 63.2133 97.3715 63.416 98.6729 63.416C100.55 63.416 102.15 62.9893 103.473 62.136C104.796 61.2827 105.777 59.864 106.417 57.88H102.417C102.268 58.392 101.862 58.8827 101.201 59.352C100.54 59.8 99.7502 60.024 98.8329 60.024C97.5529 60.024 96.5715 59.6933 95.8889 59.032C95.2062 58.3707 94.8329 57.304 94.7689 55.832Z" fill="black"/>
<path d="M123.49 49.4V44.056H128.194C128.642 44.056 129.069 44.0987 129.474 44.184C129.901 44.248 130.274 44.376 130.594 44.568C130.914 44.76 131.17 45.0267 131.362 45.368C131.554 45.7093 131.65 46.1467 131.65 46.68C131.65 47.64 131.362 48.3333 130.786 48.76C130.21 49.1867 129.474 49.4 128.578 49.4H123.49ZM118.466 40.152V63H129.538C130.562 63 131.554 62.872 132.514 62.616C133.495 62.36 134.359 61.9653 135.106 61.432C135.874 60.8987 136.482 60.216 136.93 59.384C137.378 58.5307 137.602 57.528 137.602 56.376C137.602 54.9467 137.25 53.7307 136.546 52.728C135.863 51.704 134.818 50.9893 133.41 50.584C134.434 50.0933 135.202 49.464 135.714 48.696C136.247 47.928 136.514 46.968 136.514 45.816C136.514 44.7493 136.333 43.8533 135.97 43.128C135.629 42.4027 135.138 41.8267 134.498 41.4C133.858 40.952 133.09 40.632 132.194 40.44C131.298 40.248 130.306 40.152 129.218 40.152H118.466ZM123.49 59.096V52.824H128.962C130.05 52.824 130.925 53.08 131.586 53.592C132.247 54.0827 132.578 54.9147 132.578 56.088C132.578 56.6853 132.471 57.176 132.258 57.56C132.066 57.944 131.799 58.2533 131.458 58.488C131.117 58.7013 130.722 58.8613 130.274 58.968C129.826 59.0533 129.357 59.096 128.866 59.096H123.49ZM155.877 63V46.456H151.333V55.128C151.333 56.8133 151.056 58.0293 150.501 58.776C149.947 59.5013 149.051 59.864 147.813 59.864C146.725 59.864 145.968 59.5333 145.541 58.872C145.115 58.1893 144.901 57.1653 144.901 55.8V46.456H140.357V56.632C140.357 57.656 140.443 58.5947 140.613 59.448C140.805 60.28 141.125 60.9947 141.573 61.592C142.021 62.168 142.629 62.616 143.397 62.936C144.187 63.256 145.189 63.416 146.405 63.416C147.365 63.416 148.304 63.2027 149.221 62.776C150.139 62.3493 150.885 61.656 151.461 60.696H151.557V63H155.877ZM158.142 59.576V63H173.342V59.576H164.126L172.734 49.88V46.456H158.782V49.88H166.75L158.142 59.576ZM174.576 59.576V63H189.776V59.576H180.56L189.168 49.88V46.456H175.216V49.88H183.184L174.576 59.576Z" fill="#4232C2"/>
</svg>
